PathFileType	4	(X/Y/Z)	c:\Git\powerlifing_model_clean\simulations\HC835B\Session1\HC835B_CUT_0003\marker_experimental.trc
DataRate	CameraRate	NumFrames	NumMarkers	Units	OrigDataRate	OrigDataStartFrame	OrigNumFrames
240.000000	240.000000	4	38	mm	240.000000	60	81
Frame#	Time	RPSI			LPSI			RASI			LASI			RTH1			RTH2			RTH3			RTH4			RSK1			RSK2			RSK3			RSK4			RCAL1			RCAL2			RCAL3			RST			RPT			RTN			RFMB			RSMB			RVMB			RFMH			RSMH			RVMH			RPM			LTH1			LTH2			LTH3			LTH4			LSK1			LSK2			LSK3			LSK4			LCAL1			LCAL2			LCAL3			LFMH			LVMH			
		X1	Y1	Z1	X2	Y2	Z2	X3	Y3	Z3	X4	Y4	Z4	X5	Y5	Z5	X6	Y6	Z6	X7	Y7	Z7	X8	Y8	Z8	X9	Y9	Z9	X10	Y10	Z10	X11	Y11	Z11	X12	Y12	Z12	X13	Y13	Z13	X14	Y14	Z14	X15	Y15	Z15	X16	Y16	Z16	X17	Y17	Z17	X18	Y18	Z18	X19	Y19	Z19	X20	Y20	Z20	X21	Y21	Z21	X22	Y22	Z22	X23	Y23	Z23	X24	Y24	Z24	X25	Y25	Z25	X26	Y26	Z26	X27	Y27	Z27	X28	Y28	Z28	X29	Y29	Z29	X30	Y30	Z30	X31	Y31	Z31	X32	Y32	Z32	X33	Y33	Z33	X34	Y34	Z34	X35	Y35	Z35	X36	Y36	Z36	X37	Y37	Z37	X38	Y38	Z38	

61	0.25	31.77996826171876	1044.04736328125	-746.6268310546876	-50.68832015991212	1012.605895996094	-680.2592773437501	-32.18457412719727	954.702331542969	-945.2402954101565	-211.6676483154297	913.289733886719	-791.7828369140627	192.4761352539063	768.492858886719	-871.6005859375002	160.9166107177735	727.2355346679689	-903.3599853515627	214.1256103515626	687.1174316406251	-862.0774536132815	177.7088775634766	646.2450561523439	-882.7395019531252	473.6697082519532	377.8928222656251	-633.5357666015626	468.2393798828126	335.1898498535157	-677.9824218750001	499.2395629882814	325.5788879394532	-626.2328491210939	485.2807006835939	280.8784484863282	-663.7079467773439	554.7041015625001	227.3536071777344	-505.6549682617189	528.7360229492189	195.1359100341797	-477.5454406738282	591.7252197265626	197.3287963867188	-495.6089172363282	501.2799072265626	158.8318481445313	-533.6857299804689	602.0223999023439	167.1781158447266	-551.2328491210939	500.792938232422	137.6308288574219	-589.5211791992189	502.0981750488282	104.716796875	-604.0252075195314	543.2684326171876	114.860580444336	-638.2977905273439	609.6484985351564	116.4490814208985	-568.2377319335939	493.9506225585939	52.90466690063478	-617.6411743164064	542.6190795898439	53.5709571838379	-653.3595581054689	623.5972900390626	49.99063873291017	-616.9309692382814	517.6153564453126	36.72290039062501	-687.1316528320314	-233.0959930419922	684.8202514648439	-842.396179199219	-272.6533203125001	716.4204101562501	-872.7764282226565	-260.7614135742188	645.3324584960939	-913.2913208007815	-291.5767211914063	682.1451416015626	-951.6832275390627	-70.74024200439455	310.2554931640626	-1042.659912109375	-95.75627899169923	281.9251098632813	-1085.736450195313	-51.16162490844728	262.3920593261719	-1069.758178710938	-68.09183502197267	244.2329101562501	-1120.885864257813	97.58907318115237	167.3399353027344	-1093.807373046875	92.63421630859376	118.5290145874024	-1091.38330078125	128.5289764404297	149.3509368896485	-1125.437744140625	-14.75208568572998	157.0297546386719	-1295.183837890625	-45.92027282714844	81.92686462402345	-1221.575317382813	
62	0.2541666666666667	20.79586029052735	1046.815307617188	-764.2772216796876	-60.57504272460939	1014.552673339844	-698.0082397460939	-42.92715072631837	955.5945434570315	-962.1849365234377	-221.4893035888672	915.2908325195315	-809.7925415039065	183.8425903320313	772.0623168945315	-887.7269287109377	152.531234741211	729.8652343750001	-918.5478515625002	206.2977142333985	691.2186889648439	-876.503112792969	170.2528991699219	649.5659179687501	-896.2564697265627	468.0708923339845	384.9245910644532	-643.4644775390626	463.4989318847657	342.7304077148438	-688.3316650390626	493.8554077148439	332.7859497070313	-636.3160400390626	480.3845825195314	288.1661682128907	-674.2965087890626	546.1151123046876	238.0625610351563	-517.5582885742189	519.0509033203126	207.0982055664063	-488.5001831054689	582.6445922851564	209.1983184814454	-504.4472961425782	494.1073608398439	167.1489715576172	-543.4457397460939	595.2060546875001	176.0940551757813	-557.9914550781251	495.6685791015626	143.4324951171875	-598.6173095703126	497.962615966797	109.368881225586	-610.8265380859376	540.1280517578126	118.5284652709961	-644.0425415039064	604.0096435546876	124.8223953247071	-572.0961303710939	490.9439392089845	55.926082611084	-621.5021972656251	541.1790161132814	55.94132614135744	-655.5020141601564	620.8459472656251	55.82920837402345	-616.1494140625001	518.4315795898439	35.55223464965821	-687.2242431640626	-241.3124237060547	685.6331787109376	-858.9829711914065	-278.9706115722657	717.1920776367189	-890.1586914062502	-268.5137329101563	645.3113403320314	-929.8717041015627	-299.0621337890626	682.1143188476564	-968.6824951171877	-81.77990722656251	304.5619201660157	-1073.115966796875	-107.462516784668	279.0516052246094	-1112.62890625	-63.75643920898439	258.0654602050782	-1101.193725585938	-83.16639709472658	241.5892486572266	-1152.029174804688	81.57514953613283	160.5525512695313	-1133.480102539063	74.77890777587892	112.8005828857422	-1131.550170898438	111.2071990966797	143.421875	-1166.417602539063	-37.23138427734376	159.7236328125	-1331.239868164063	-67.36354064941408	82.25192260742189	-1259.72314453125	
63	0.2583333333333333	9.991343498229982	1049.586669921875	-781.8037109375002	-70.56378173828126	1016.466918945313	-715.6483154296876	-53.68591690063478	956.493591308594	-979.012390136719	-231.2658081054688	917.3110351562502	-827.6912841796877	175.1285095214844	775.652038574219	-904.0114746093752	144.4885864257813	732.6272583007814	-934.1990966796877	198.4897155761719	695.3109130859376	-891.2972412109377	162.9603424072266	652.9080200195314	-910.457946777344	462.1900024414064	392.0467529296876	-653.9920043945314	458.092498779297	349.9660949707032	-699.1073608398439	488.0144958496095	339.9342346191407	-646.7705688476564	474.880584716797	295.4128112792969	-684.9878540039064	536.4417724609376	248.5532226562501	-529.2330932617189	509.4686279296876	218.7848205566407	-499.4937438964845	573.5317382812501	221.2344512939454	-513.6738281250001	486.5307922363282	175.9694366455078	-553.4489135742189	588.1234130859376	185.7001495361328	-565.2374877929689	490.5980834960939	149.2212829589844	-606.5575561523439	493.2053833007814	114.7894134521485	-617.6142578125001	536.1303100585939	123.4187698364258	-649.7800292968751	597.9305419921876	134.010971069336	-576.6381225585939	487.824676513672	59.32490921020509	-625.4774780273439	539.1378784179689	58.92857742309572	-658.2147216796876	617.2141113281251	63.17316055297853	-616.5397338867189	519.1744995117189	34.40167999267579	-687.6525268554689	-249.2234649658204	685.7946166992189	-875.7083740234377	-286.5848083496094	714.8436889648439	-909.0501098632815	-275.9639282226563	645.0384521484376	-946.1356201171877	-306.4629516601563	681.1629028320314	-985.503601074219	-92.81130218505861	299.9324951171876	-1101.385986328125	-119.8377914428711	274.6870117187501	-1142.075561523438	-76.45623779296876	253.8786621093751	-1131.658447265625	-98.5614929199219	239.5603027343751	-1182.934448242188	65.17278289794923	154.2509155273438	-1171.854370117188	57.70740890502931	106.7930374145508	-1171.581420898438	93.06505584716798	137.6436462402344	-1206.458862304688	-59.18260192871095	163.0381011962891	-1366.064086914063	-88.63510894775392	83.26946258544923	-1296.6728515625	
64	0.2625	-0.8686603903770449	1052.202514648438	-799.1470947265627	-80.68560791015626	1018.313720703125	-733.2456054687501	-64.26226043701173	957.6237792968752	-995.9334106445315	-241.4218750000001	919.3430175781252	-845.2417602539065	166.5789337158203	779.2578125000002	-920.4205322265627	136.5909271240235	735.4556274414064	-950.3051757812502	190.756591796875	699.3218994140626	-906.5812988281252	155.8692321777344	656.2775268554689	-925.4121093750002	455.8701477050782	399.164520263672	-665.2540893554689	451.925506591797	356.8334045410157	-710.1263427734376	481.5678710937501	347.0296630859376	-657.5922851562501	468.6787414550782	302.3406372070313	-695.7050781250001	527.2722167968751	259.4416809082032	-541.0372924804689	500.1466369628907	230.7405700683594	-510.4869689941407	564.6308593750001	233.7865905761719	-523.2680053710939	479.0556640625001	184.7494201660157	-562.7954711914064	580.9117431640626	196.1662139892579	-572.8017578125001	484.7727966308595	155.74462890625	-614.5707397460939	488.3851623535157	120.9979095458985	-624.2225341796876	531.7413330078126	129.5088958740235	-656.0560913085939	591.6375732421876	144.1850280761719	-581.8037719726564	484.6708068847657	63.53907012939455	-630.0547485351564	536.8290405273439	62.71261978149415	-660.9516601562501	612.9552001953126	72.08186340332033	-618.0311889648439	518.8873901367189	33.26253890991212	-689.4296264648439	-256.9561462402344	685.7883300781251	-892.277526855469	-295.4229431152344	715.6820678710939	-924.294616699219	-283.1949768066407	644.1455078125001	-962.355895996094	-313.8707885742188	679.5918579101564	-1002.160827636719	-103.9451751708985	295.3160705566407	-1129.073608398438	-133.2568359375	273.4645080566407	-1166.421752929688	-88.80615234375001	250.4734802246094	-1160.801513671875	-113.527702331543	237.0088195800782	-1211.551635742188	48.43246078491212	148.354736328125	-1208.964965820313	39.86806106567384	100.7410659790039	-1210.3056640625	74.95543670654298	132.4840240478516	-1244.922973632813	-80.49311828613283	166.6580352783203	-1399.422607421875	-109.674072265625	84.6264114379883	-1332.488647460938	
